<svg xmlns="http://www.w3.org/2000/svg" width="1200" height="320" viewBox="0 0 1200 320" role="img" aria-label="训练日志可视化与比较 — TrainLens">
<defs><linearGradient id="bg" x2="1" y2="1"><stop stop-color="#101f31"/><stop offset="1" stop-color="#172c42"/></linearGradient></defs>
<rect width="1200" height="320" rx="20" fill="url(#bg)"/>
<path d="M60 40H1140" stroke="#ffffff" stroke-opacity=".09"/>
<text x="60" y="78" font-family="Segoe UI,Arial,sans-serif" font-size="13" letter-spacing="4" fill="#82dbaf">YANGTAO / LEARNING BY BUILDING</text>
<text x="57" y="153" font-family="Microsoft YaHei,Noto Sans CJK SC,Segoe UI,Arial,sans-serif" font-size="46" font-weight="700" fill="#f4f8fc">训练日志可视化与比较</text>
<text x="60" y="199" font-family="Microsoft YaHei,Noto Sans CJK SC,Segoe UI,Arial,sans-serif" font-size="21" fill="#adbdcc">CSV → 离线交互报告 · 对比学习曲线与最优轮次</text>
<rect x="60" y="244" width="158" height="30" rx="15" fill="#82dbaf" fill-opacity=".12"/>
<text x="80" y="264" font-family="Segoe UI,Arial,sans-serif" font-size="12" fill="#82dbaf">TRAINLENS · OFFLINE</text>
<rect x="828" y="60" width="27" height="27" rx="6" fill="#82dbaf" opacity="0.30"/><rect x="866" y="60" width="27" height="27" rx="6" fill="#82dbaf" opacity="0.71"/><rect x="904" y="60" width="27" height="27" rx="6" fill="#82dbaf" opacity="0.46"/><rect x="942" y="60" width="27" height="27" rx="6" fill="#82dbaf" opacity="0.21"/><rect x="980" y="60" width="27" height="27" rx="6" fill="#82dbaf" opacity="0.63"/><rect x="1018" y="60" width="27" height="27" rx="6" fill="#82dbaf" opacity="0.38"/><rect x="1056" y="60" width="27" height="27" rx="6" fill="#82dbaf" opacity="0.13"/><rect x="828" y="98" width="27" height="27" rx="6" fill="#82dbaf" opacity="0.55"/><rect x="866" y="98" width="27" height="27" rx="6" fill="#82dbaf" opacity="0.30"/><rect x="904" y="98" width="27" height="27" rx="6" fill="#82dbaf" opacity="0.71"/><rect x="942" y="98" width="27" height="27" rx="6" fill="#82dbaf" opacity="0.46"/><rect x="980" y="98" width="27" height="27" rx="6" fill="#82dbaf" opacity="0.21"/><rect x="1018" y="98" width="27" height="27" rx="6" fill="#82dbaf" opacity="0.63"/><rect x="1056" y="98" width="27" height="27" rx="6" fill="#82dbaf" opacity="0.38"/><rect x="828" y="136" width="27" height="27" rx="6" fill="#82dbaf" opacity="0.13"/><rect x="866" y="136" width="27" height="27" rx="6" fill="#82dbaf" opacity="0.55"/><rect x="904" y="136" width="27" height="27" rx="6" fill="#82dbaf" opacity="0.30"/><rect x="942" y="136" width="27" height="27" rx="6" fill="#82dbaf" opacity="0.71"/><rect x="980" y="136" width="27" height="27" rx="6" fill="#82dbaf" opacity="0.46"/><rect x="1018" y="136" width="27" height="27" rx="6" fill="#82dbaf" opacity="0.21"/><rect x="1056" y="136" width="27" height="27" rx="6" fill="#82dbaf" opacity="0.63"/><rect x="828" y="174" width="27" height="27" rx="6" fill="#82dbaf" opacity="0.38"/><rect x="866" y="174" width="27" height="27" rx="6" fill="#82dbaf" opacity="0.13"/><rect x="904" y="174" width="27" height="27" rx="6" fill="#82dbaf" opacity="0.55"/><rect x="942" y="174" width="27" height="27" rx="6" fill="#82dbaf" opacity="0.30"/><rect x="980" y="174" width="27" height="27" rx="6" fill="#82dbaf" opacity="0.71"/><rect x="1018" y="174" width="27" height="27" rx="6" fill="#82dbaf" opacity="0.46"/><rect x="1056" y="174" width="27" height="27" rx="6" fill="#82dbaf" opacity="0.21"/><rect x="828" y="212" width="27" height="27" rx="6" fill="#82dbaf" opacity="0.63"/><rect x="866" y="212" width="27" height="27" rx="6" fill="#82dbaf" opacity="0.38"/><rect x="904" y="212" width="27" height="27" rx="6" fill="#82dbaf" opacity="0.13"/><rect x="942" y="212" width="27" height="27" rx="6" fill="#82dbaf" opacity="0.55"/><rect x="980" y="212" width="27" height="27" rx="6" fill="#82dbaf" opacity="0.30"/><rect x="1018" y="212" width="27" height="27" rx="6" fill="#82dbaf" opacity="0.71"/><rect x="1056" y="212" width="27" height="27" rx="6" fill="#82dbaf" opacity="0.46"/><text x="829" y="285" font-family="Consolas,monospace" font-size="11" letter-spacing="3" fill="#8094a8">SMALL STEPS. REAL RESULTS.</text></svg>
